<svg width="47" height="47" viewBox="0 0 47 47" fill="none" xmlns="http://www.w3.org/2000/svg">
<g clip-path="url(#clip0_997_96)">
<path d="M8.25002 18.7505C8.24993 16.1497 8.89392 13.5893 10.1245 11.298C11.355 9.00675 13.1338 7.05586 15.3021 5.61956C17.4703 4.18326 19.9605 3.30626 22.5503 3.06687C25.1401 2.82747 27.7488 3.23314 30.1436 4.24764C32.5384 5.26215 34.6447 6.85391 36.2744 8.8808C37.9041 10.9077 39.0066 13.3066 39.4832 15.8634C39.9599 18.4201 39.796 21.0552 39.0061 23.5331C38.2163 26.0111 36.8251 28.2549 34.9568 30.0642C34.4239 30.5787 34.0144 31.1142 33.7676 31.6891L31.7674 36.3327C31.6659 36.5681 31.4977 36.7686 31.2836 36.9095C31.0695 37.0503 30.8188 37.1254 30.5625 37.1255C30.9106 37.1255 31.2445 37.2638 31.4906 37.5099C31.7367 37.7561 31.875 38.0899 31.875 38.438C31.875 38.7861 31.7367 39.1199 31.4906 39.3661C31.2445 39.6122 30.9106 39.7505 30.5625 39.7505C30.9106 39.7505 31.2445 39.8888 31.4906 40.1349C31.7367 40.3811 31.875 40.7149 31.875 41.063C31.875 41.4111 31.7367 41.7449 31.4906 41.9911C31.2445 42.2372 30.9106 42.3755 30.5625 42.3755L29.9745 43.5489C29.7567 43.9848 29.4217 44.3515 29.0073 44.6079C28.5928 44.8643 28.1151 45.0002 27.6278 45.0005H20.3723C19.8849 45.0002 19.4072 44.8643 18.9928 44.6079C18.5783 44.3515 18.2434 43.9848 18.0255 43.5489L17.4375 42.3755C17.0894 42.3755 16.7556 42.2372 16.5094 41.9911C16.2633 41.7449 16.125 41.4111 16.125 41.063C16.125 40.7149 16.2633 40.3811 16.5094 40.1349C16.7556 39.8888 17.0894 39.7505 17.4375 39.7505C17.0894 39.7505 16.7556 39.6122 16.5094 39.3661C16.2633 39.1199 16.125 38.7861 16.125 38.438C16.125 38.0899 16.2633 37.7561 16.5094 37.5099C16.7556 37.2638 17.0894 37.1255 17.4375 37.1255C17.1808 37.1259 16.9295 37.0511 16.7149 36.9102C16.5003 36.7693 16.3317 36.5685 16.23 36.3327L14.2324 31.6865C13.9443 31.0742 13.5405 30.5233 13.0433 30.0642C11.5245 28.5977 10.3173 26.8398 9.49367 24.8958C8.67008 22.9519 8.24709 20.8617 8.25002 18.7505ZM24 5.6255C21.3859 5.62505 18.8313 6.40521 16.6634 7.86597C14.4956 9.32673 12.8133 11.4016 11.8322 13.8245C10.8512 16.2475 10.6159 18.9083 11.1567 21.4658C11.6975 24.0233 12.9897 26.3611 14.8676 28.1795C15.558 28.8462 16.2169 29.66 16.6421 30.6496L18.3038 34.5005H29.7015L31.3605 30.6496C31.7858 29.66 32.4446 28.8462 33.135 28.1795C35.0131 26.3609 36.3054 24.0229 36.8461 21.4651C37.3868 18.9074 37.1513 16.2464 36.1699 13.8233C35.1885 11.4002 33.5058 9.32543 31.3376 7.86487C29.1693 6.4043 26.6143 5.62453 24 5.6255Z" fill="#326BE3"/>
</g>
<defs>
<clipPath id="clip0_997_96">
<rect width="42" height="42" fill="white" transform="translate(3 3)"/>
</clipPath>
</defs>
</svg>
