<svg width="47" height="47" viewBox="0 0 47 47" fill="none" xmlns="http://www.w3.org/2000/svg">
<g clip-path="url(#clip0_998_110)">
<path d="M7.3125 8.46875C7.3125 7.54878 7.67796 6.66649 8.32847 6.01597C8.97899 5.36546 9.86128 5 10.7812 5H38.5312C39.4512 5 40.3335 5.36546 40.984 6.01597C41.6345 6.66649 42 7.54878 42 8.46875V38.5312C42 39.4512 41.6345 40.3335 40.984 40.984C40.3335 41.6345 39.4512 42 38.5312 42H10.7812C9.86128 42 8.97899 41.6345 8.32847 40.984C7.67796 40.3335 7.3125 39.4512 7.3125 38.5312V35.0625H6.15625C5.84959 35.0625 5.5555 34.9407 5.33866 34.7238C5.12182 34.507 5 34.2129 5 33.9062C5 33.5996 5.12182 33.3055 5.33866 33.0887C5.5555 32.8718 5.84959 32.75 6.15625 32.75H7.3125V24.6562H6.15625C5.84959 24.6562 5.5555 24.5344 5.33866 24.3176C5.12182 24.1008 5 23.8067 5 23.5C5 23.1933 5.12182 22.8992 5.33866 22.6824C5.5555 22.4656 5.84959 22.3438 6.15625 22.3438H7.3125V14.25H6.15625C5.84959 14.25 5.5555 14.1282 5.33866 13.9113C5.12182 13.6945 5 13.4004 5 13.0938C5 12.7871 5.12182 12.493 5.33866 12.2762C5.5555 12.0593 5.84959 11.9375 6.15625 11.9375H7.3125V8.46875ZM10.7812 7.3125C10.4746 7.3125 10.1805 7.43432 9.96366 7.65116C9.74682 7.868 9.625 8.16209 9.625 8.46875V38.5312C9.625 38.8379 9.74682 39.132 9.96366 39.3488C10.1805 39.5657 10.4746 39.6875 10.7812 39.6875H38.5312C38.8379 39.6875 39.132 39.5657 39.3488 39.3488C39.5657 39.132 39.6875 38.8379 39.6875 38.5312V8.46875C39.6875 8.16209 39.5657 7.868 39.3488 7.65116C39.132 7.43432 38.8379 7.3125 38.5312 7.3125H10.7812Z" fill="#326BE3"/>
<path d="M36.2169 18.8741C36.5236 18.8741 36.8177 18.9959 37.0345 19.2128C37.2514 19.4296 37.3732 19.7237 37.3732 20.0304V26.9679C37.3732 27.2745 37.2514 27.5686 37.0345 27.7855C36.8177 28.0023 36.5236 28.1241 36.2169 28.1241C35.9103 28.1241 35.6162 28.0023 35.3993 27.7855C35.1825 27.5686 35.0607 27.2745 35.0607 26.9679V20.0304C35.0607 19.7237 35.1825 19.4296 35.3993 19.2128C35.6162 18.9959 35.9103 18.8741 36.2169 18.8741ZM16.1629 15.3221C16.2703 15.2144 16.3979 15.129 16.5384 15.0707C16.6789 15.0124 16.8295 14.9824 16.9816 14.9824C17.1336 14.9824 17.2842 15.0124 17.4247 15.0707C17.5652 15.129 17.6928 15.2144 17.8002 15.3221L20.3208 17.8427C21.4949 17.0083 22.8995 16.5599 24.3399 16.5599C25.7803 16.5599 27.185 17.0083 28.3591 17.8427L30.8797 15.3221C31.0968 15.1053 31.3911 14.9836 31.698 14.9838C32.0048 14.9841 32.299 15.1062 32.5158 15.3233C32.7326 15.5404 32.8543 15.8347 32.854 16.1416C32.8538 16.4484 32.7317 16.7426 32.5146 16.9594L29.994 19.48C31.7052 21.8781 31.7052 25.1225 29.994 27.5182L32.5146 30.0389C32.7317 30.2557 32.8538 30.5498 32.854 30.8567C32.8543 31.1635 32.7326 31.4578 32.5158 31.675C32.299 31.8921 32.0048 32.0142 31.698 32.0144C31.3911 32.0146 31.0968 31.8929 30.8797 31.6761L28.3591 29.1555C27.185 29.99 25.7803 30.4383 24.3399 30.4383C22.8995 30.4383 21.4949 29.99 20.3208 29.1555L17.8002 31.6761C17.6927 31.7836 17.5651 31.8689 17.4246 31.9271C17.2841 31.9853 17.1336 32.0152 16.9816 32.0152C16.8295 32.0152 16.679 31.9853 16.5385 31.9271C16.3981 31.8689 16.2704 31.7836 16.1629 31.6761C16.0554 31.5686 15.9702 31.441 15.912 31.3005C15.8538 31.1601 15.8238 31.0095 15.8238 30.8575C15.8238 30.7055 15.8538 30.5549 15.912 30.4145C15.9702 30.274 16.0554 30.1464 16.1629 30.0389L18.6836 27.5182C17.8491 26.3442 17.4008 24.9395 17.4008 23.4991C17.4008 22.0587 17.8491 20.654 18.6836 19.48L16.1629 16.9594C16.0553 16.852 15.9698 16.7244 15.9115 16.5839C15.8532 16.4434 15.8232 16.2928 15.8232 16.1407C15.8232 15.9887 15.8532 15.8381 15.9115 15.6976C15.9698 15.5571 16.0553 15.4295 16.1629 15.3221ZM21.0701 20.2292C20.6283 20.6559 20.276 21.1662 20.0336 21.7305C19.7912 22.2948 19.6636 22.9017 19.6583 23.5158C19.6529 24.1299 19.77 24.7389 20.0025 25.3073C20.2351 25.8757 20.5785 26.3921 21.0127 26.8263C21.447 27.2606 21.9634 27.604 22.5318 27.8365C23.1002 28.0691 23.7092 28.1861 24.3233 28.1808C24.9374 28.1754 25.5443 28.0478 26.1086 27.8055C26.6728 27.5631 27.1832 27.2107 27.6098 26.769C28.4523 25.8967 28.9185 24.7284 28.9079 23.5158C28.8974 22.3031 28.411 21.1431 27.5535 20.2856C26.696 19.4281 25.5359 18.9417 24.3233 18.9311C23.1106 18.9206 21.9423 19.3868 21.0701 20.2292Z" fill="#326BE3"/>
</g>
<defs>
<clipPath id="clip0_998_110">
<rect width="37" height="37" fill="white" transform="translate(5 5)"/>
</clipPath>
</defs>
</svg>
