<svg width="47" height="47" viewBox="0 0 47 47" fill="none" xmlns="http://www.w3.org/2000/svg">
<path d="M26.16 4.11521C23.77 3.51771 21.55 5.32521 21.39 7.66521C21.21 10.2927 20.815 12.7052 20.32 14.1402C20.0075 15.0402 19.1225 16.6727 17.72 18.2377C16.3275 19.7952 14.515 21.1827 12.3925 21.7627C10.7125 22.2202 9 23.6752 9 25.8002V35.8027C9 37.9152 10.705 39.4627 12.62 39.6652C15.295 39.9502 16.53 40.7027 17.79 41.4727L17.91 41.5477C18.59 41.9602 19.355 42.4177 20.335 42.7577C21.3275 43.0977 22.4875 43.3002 24 43.3002H32.75C35.0925 43.3002 36.7475 42.1077 37.585 40.6402C37.9898 39.9477 38.2085 39.1623 38.22 38.3602C38.22 37.9802 38.1625 37.5802 38.0275 37.2002C38.53 36.5427 38.9775 35.7552 39.2475 34.9477C39.5225 34.1227 39.6775 33.0427 39.2575 32.0752C39.43 31.7502 39.5575 31.4027 39.655 31.0677C39.8475 30.3927 39.9375 29.6477 39.9375 28.9252C39.9375 28.2052 39.8475 27.4627 39.655 26.7852C39.5696 26.4731 39.454 26.17 39.31 25.8802C39.7478 25.2574 40.0294 24.5385 40.1312 23.7841C40.233 23.0296 40.152 22.2618 39.895 21.5452C39.38 20.0652 38.19 18.7952 36.895 18.3652C34.7775 17.6602 32.3875 17.6752 30.605 17.8377C30.235 17.8711 29.8657 17.9128 29.4975 17.9627C30.3612 14.2483 30.308 10.3795 29.3425 6.69021C29.1739 6.09918 28.8505 5.56392 28.4057 5.13978C27.9609 4.71565 27.4109 4.41803 26.8125 4.27771L26.16 4.11521ZM32.75 40.8027H24C22.725 40.8027 21.8425 40.6302 21.15 40.3927C20.4475 40.1502 19.885 39.8227 19.21 39.4102L19.11 39.3502C17.7225 38.5027 16.115 37.5227 12.885 37.1802C12.0525 37.0902 11.5 36.4552 11.5 35.8052V25.8002C11.5 25.1652 12.065 24.4427 13.05 24.1752C15.7875 23.4252 17.9925 21.6852 19.585 19.9052C21.1725 18.1302 22.245 16.2177 22.68 14.9602C23.2875 13.2102 23.6975 10.5402 23.885 7.83521C23.9475 6.93021 24.785 6.35021 25.5525 6.54021L26.2075 6.70521C26.6075 6.80521 26.8525 7.06271 26.9275 7.34271C27.9485 11.2328 27.8226 15.3351 26.565 19.1552C26.4938 19.3677 26.4811 19.5954 26.528 19.8145C26.575 20.0336 26.6801 20.236 26.8321 20.4006C26.9842 20.5651 27.1777 20.6858 27.3924 20.75C27.6071 20.8141 27.8351 20.8194 28.0525 20.7652L28.06 20.7627L28.095 20.7552L28.24 20.7202C29.095 20.5392 29.9598 20.4081 30.83 20.3277C32.4875 20.1777 34.4725 20.1927 36.105 20.7377C36.5425 20.8827 37.23 21.4877 37.53 22.3627C37.7975 23.1327 37.7475 24.0377 36.865 24.9177L35.9825 25.8002L36.865 26.6852C36.9725 26.7927 37.1275 27.0377 37.25 27.4727C37.37 27.8902 37.4375 28.3977 37.4375 28.9252C37.4375 29.4552 37.37 29.9602 37.25 30.3802C37.125 30.8152 36.9725 31.0602 36.865 31.1677L35.9825 32.0502L36.865 32.9352C36.9825 33.0527 37.1375 33.3777 36.8775 34.1552C36.6083 34.91 36.1774 35.5969 35.615 36.1677L34.7325 37.0502L35.615 37.9352C35.63 37.9477 35.7175 38.0602 35.7175 38.3602C35.7029 38.7263 35.599 39.0833 35.415 39.4002C35.0025 40.1202 34.1575 40.8027 32.75 40.8027Z" fill="#326BE3"/>
</svg>
