<svg width="66" height="66" viewBox="0 0 66 66" fill="none" xmlns="http://www.w3.org/2000/svg">
<path d="M33.001 11.6499C41.5813 11.65 48.5713 18.6297 48.5713 27.2202C48.5712 35.8106 41.5913 42.7905 33.001 42.7905C24.4105 42.7905 17.4307 35.8005 17.4307 27.2202C17.4307 18.6297 24.4206 11.6499 33.001 11.6499ZM33.001 13.9204C25.6714 13.9204 19.7109 19.8809 19.7109 27.2104C19.7111 34.5398 25.6716 40.5005 33.001 40.5005C40.3303 40.5004 46.2908 34.5398 46.291 27.2104C46.291 19.8809 40.3305 13.9205 33.001 13.9204Z" fill="#326BE3" stroke="#326BE3" stroke-width="0.4"/>
<path d="M26.7103 21.73C24.2903 21.73 22.3203 23.7 22.3203 26.12V31.76C22.3203 32.28 22.7403 32.7 23.2603 32.7C23.7803 32.7 24.2003 32.28 24.2003 31.76V29.1H29.2203V31.76C29.2203 32.28 29.6403 32.7 30.1603 32.7C30.6803 32.7 31.1003 32.28 31.1003 31.76V26.12C31.1003 23.7 29.1303 21.73 26.7103 21.73ZM24.2003 27.22V26.12C24.2003 24.73 25.3303 23.61 26.7103 23.61C28.0903 23.61 29.2203 24.74 29.2203 26.12V27.22H24.2003Z" fill="#326BE3"/>
<path d="M36.3203 21.73H34.0103C33.4903 21.73 33.0703 22.15 33.0703 22.67V31.76C33.0703 32.28 33.4903 32.7 34.0103 32.7C34.5303 32.7 34.9503 32.28 34.9503 31.76V28.15H36.3203C38.0903 28.15 39.5303 26.71 39.5303 24.94C39.5303 23.17 38.0903 21.73 36.3203 21.73ZM36.3203 26.27H34.9503V23.6H36.3203C37.0503 23.6 37.6503 24.2 37.6503 24.93C37.6503 25.66 37.0603 26.27 36.3203 26.27Z" fill="#326BE3"/>
<path d="M41.8008 23.0801V31.3501C41.8008 31.8701 42.2208 32.2901 42.7408 32.2901C43.2608 32.2901 43.6808 31.8701 43.6808 31.3501V23.0801C43.6808 22.5601 43.2608 22.1401 42.7408 22.1401C42.2208 22.1401 41.8008 22.5601 41.8008 23.0801Z" fill="#326BE3"/>
<mask id="path-5-outside-1_1001_126" maskUnits="userSpaceOnUse" x="5.23047" y="1" width="55" height="64" fill="black">
<rect fill="white" x="5.23047" y="1" width="55" height="64"/>
<path d="M57.1805 57.08V50.21C57.1805 49.96 57.0805 49.72 56.9005 49.55L51.6105 44.26L53.4405 42.43C54.2605 41.6 54.3805 40.29 53.7305 39.33L53.2305 38.59C53.1105 38.41 53.1105 38.18 53.2205 37.97C53.9005 36.7 54.4605 35.34 54.9005 33.93C54.9705 33.71 55.1405 33.54 55.3405 33.5L56.2105 33.33C57.3605 33.11 58.2005 32.1 58.2005 30.92V23.52C58.2005 22.34 57.3605 21.33 56.2105 21.11L55.3505 20.95C55.1405 20.91 54.9705 20.74 54.9005 20.52C54.4705 19.11 53.9005 17.76 53.2205 16.48C53.1105 16.27 53.1105 16.04 53.2305 15.86L53.7305 15.12C54.3805 14.15 54.2605 12.85 53.4305 12.01L48.1905 6.77C47.3605 5.95 46.0505 5.83 45.0905 6.48L44.3405 6.98C44.1705 7.1 43.9305 7.1 43.7205 6.99C42.4505 6.31 41.0905 5.75 39.6805 5.31C39.4605 5.24 39.2905 5.07 39.2505 4.87L39.0805 4C38.8905 2.84 37.8805 2 36.7005 2H29.3005C28.1205 2 27.1105 2.84 26.8905 3.99L26.7305 4.85C26.6905 5.06 26.5205 5.23 26.3005 5.3C24.8905 5.73 23.5405 6.3 22.2605 6.98C22.0505 7.09 21.8205 7.09 21.6405 6.97L20.9005 6.47C19.9305 5.82 18.6305 5.94 17.7905 6.77L12.5505 12C11.7305 12.83 11.6105 14.14 12.2605 15.1L12.7605 15.84C12.8805 16.01 12.8805 16.25 12.7705 16.46C12.0905 17.73 11.5305 19.09 11.0905 20.5C11.0205 20.72 10.8505 20.89 10.6505 20.93L9.78047 21.1C8.63047 21.32 7.79047 22.33 7.79047 23.51V30.91C7.79047 32.09 8.63047 33.1 9.78047 33.32L10.6405 33.48C10.8505 33.52 11.0205 33.69 11.0905 33.91C11.5205 35.32 12.0905 36.67 12.7705 37.95C12.8805 38.16 12.8805 38.39 12.7605 38.57L12.2605 39.31C11.6105 40.28 11.7305 41.58 12.5605 42.42L14.3805 44.24L9.10047 49.53C8.92047 49.71 8.82047 49.94 8.82047 50.19V57.08C7.33047 57.49 6.23047 58.85 6.23047 60.47C6.23047 62.42 7.81047 64 9.76047 64C11.7105 64 13.2905 62.42 13.2905 60.47C13.2905 58.85 12.1905 57.5 10.7005 57.08V50.58L15.7105 45.57L17.8005 47.66C18.6305 48.48 19.9405 48.6 20.9005 47.95L21.6405 47.45C21.8205 47.33 22.0505 47.33 22.2605 47.44C23.5305 48.12 24.8905 48.68 26.3005 49.12C26.5205 49.19 26.6905 49.36 26.7305 49.56L26.9005 50.43C27.1205 51.58 28.1305 52.42 29.3105 52.42H32.0705V57.08C30.5805 57.49 29.4805 58.85 29.4805 60.47C29.4805 62.42 31.0605 64 33.0105 64C34.9605 64 36.5405 62.42 36.5405 60.47C36.5405 58.85 35.4405 57.5 33.9505 57.08V52.42H36.7105C37.8805 52.42 38.9005 51.58 39.1205 50.43L39.2805 49.57C39.3205 49.36 39.4905 49.19 39.7105 49.12C41.1205 48.69 42.4705 48.12 43.7505 47.44C43.9605 47.33 44.1905 47.33 44.3705 47.45L45.1105 47.95C46.0805 48.6 47.3805 48.48 48.2205 47.65L50.3005 45.57L55.3105 50.58V57.06C53.8205 57.47 52.7205 58.83 52.7205 60.45C52.7205 62.4 54.3005 63.98 56.2505 63.98C58.2005 63.98 59.7805 62.4 59.7805 60.45C59.7705 58.85 58.6705 57.49 57.1805 57.08ZM11.4105 60.47C11.4105 61.38 10.6705 62.12 9.76047 62.12C8.85047 62.12 8.11047 61.38 8.11047 60.47C8.11047 59.56 8.85047 58.82 9.76047 58.82C10.6705 58.81 11.4105 59.56 11.4105 60.47ZM34.6505 60.47C34.6505 61.38 33.9105 62.12 33.0005 62.12C32.0905 62.12 31.3505 61.38 31.3505 60.47C31.3505 59.56 32.0905 58.82 33.0005 58.82C33.9105 58.81 34.6505 59.56 34.6505 60.47ZM46.8905 46.32C46.6905 46.51 46.3805 46.54 46.1605 46.39L45.4205 45.89C44.6705 45.38 43.6905 45.34 42.8705 45.78C41.7105 46.4 40.4605 46.92 39.1705 47.32C38.2905 47.59 37.6305 48.31 37.4505 49.2L37.2805 50.07C37.2305 50.34 36.9905 50.54 36.7205 50.54H29.3205C29.0505 50.54 28.8105 50.34 28.7605 50.07L28.5905 49.18C28.4105 48.3 27.7505 47.58 26.8705 47.31C25.5805 46.91 24.3305 46.39 23.1705 45.77C22.7905 45.57 22.3805 45.47 21.9705 45.47C21.4905 45.47 21.0205 45.61 20.6105 45.88L19.8705 46.38C19.6405 46.53 19.3305 46.5 19.1405 46.31L13.9105 41.08C13.7205 40.88 13.6905 40.57 13.8405 40.35L14.3405 39.61C14.8505 38.86 14.8905 37.88 14.4505 37.06C13.8305 35.9 13.3105 34.65 12.9105 33.36C12.6405 32.48 11.9205 31.82 11.0305 31.64L10.1605 31.47C9.89047 31.42 9.69047 31.18 9.69047 30.91V23.51C9.69047 23.24 9.89047 23 10.1605 22.95L11.0405 22.78C11.9205 22.6 12.6405 21.94 12.9105 21.06C13.3105 19.77 13.8305 18.52 14.4505 17.36C14.8905 16.54 14.8505 15.56 14.3405 14.81L13.8405 14.07C13.6905 13.84 13.7205 13.53 13.9105 13.34L19.1405 8.11C19.3405 7.92 19.6505 7.89 19.8805 8.04L20.6205 8.54C21.3705 9.05 22.3505 9.09 23.1705 8.65C24.3405 8.03 25.5805 7.51 26.8705 7.11C27.7505 6.84 28.4105 6.12 28.5905 5.23L28.7605 4.36C28.8105 4.09 29.0505 3.89 29.3205 3.89H36.7205C36.9905 3.89 37.2305 4.09 37.2805 4.36L37.4505 5.25C37.6305 6.13 38.2905 6.85 39.1705 7.12C40.4605 7.52 41.7105 8.04 42.8705 8.66C43.6905 9.1 44.6805 9.06 45.4205 8.55L46.1605 8.05C46.3905 7.9 46.7005 7.93 46.8905 8.12L52.1205 13.35C52.3105 13.55 52.3405 13.86 52.1905 14.08L51.6905 14.82C51.1805 15.57 51.1405 16.55 51.5805 17.37C52.2005 18.53 52.7205 19.78 53.1205 21.07C53.3905 21.95 54.1105 22.61 55.0005 22.79L55.8705 22.96C56.1405 23.01 56.3405 23.25 56.3405 23.52V30.92C56.3405 31.19 56.1405 31.43 55.8705 31.48L54.9905 31.65C54.1105 31.83 53.3905 32.49 53.1205 33.37C52.7205 34.66 52.2005 35.91 51.5805 37.07C51.1405 37.89 51.1805 38.87 51.6905 39.62L52.1905 40.36C52.3405 40.59 52.3105 40.9 52.1205 41.09L46.8905 46.32ZM56.2405 62.12C55.3305 62.12 54.5905 61.38 54.5905 60.47C54.5905 59.56 55.3305 58.82 56.2405 58.82C57.1505 58.82 57.8905 59.56 57.8905 60.47C57.8905 61.38 57.1505 62.12 56.2405 62.12Z"/>
</mask>
<path d="M57.1805 57.08V50.21C57.1805 49.96 57.0805 49.72 56.9005 49.55L51.6105 44.26L53.4405 42.43C54.2605 41.6 54.3805 40.29 53.7305 39.33L53.2305 38.59C53.1105 38.41 53.1105 38.18 53.2205 37.97C53.9005 36.7 54.4605 35.34 54.9005 33.93C54.9705 33.71 55.1405 33.54 55.3405 33.5L56.2105 33.33C57.3605 33.11 58.2005 32.1 58.2005 30.92V23.52C58.2005 22.34 57.3605 21.33 56.2105 21.11L55.3505 20.95C55.1405 20.91 54.9705 20.74 54.9005 20.52C54.4705 19.11 53.9005 17.76 53.2205 16.48C53.1105 16.27 53.1105 16.04 53.2305 15.86L53.7305 15.12C54.3805 14.15 54.2605 12.85 53.4305 12.01L48.1905 6.77C47.3605 5.95 46.0505 5.83 45.0905 6.48L44.3405 6.98C44.1705 7.1 43.9305 7.1 43.7205 6.99C42.4505 6.31 41.0905 5.75 39.6805 5.31C39.4605 5.24 39.2905 5.07 39.2505 4.87L39.0805 4C38.8905 2.84 37.8805 2 36.7005 2H29.3005C28.1205 2 27.1105 2.84 26.8905 3.99L26.7305 4.85C26.6905 5.06 26.5205 5.23 26.3005 5.3C24.8905 5.73 23.5405 6.3 22.2605 6.98C22.0505 7.09 21.8205 7.09 21.6405 6.97L20.9005 6.47C19.9305 5.82 18.6305 5.94 17.7905 6.77L12.5505 12C11.7305 12.83 11.6105 14.14 12.2605 15.1L12.7605 15.84C12.8805 16.01 12.8805 16.25 12.7705 16.46C12.0905 17.73 11.5305 19.09 11.0905 20.5C11.0205 20.72 10.8505 20.89 10.6505 20.93L9.78047 21.1C8.63047 21.32 7.79047 22.33 7.79047 23.51V30.91C7.79047 32.09 8.63047 33.1 9.78047 33.32L10.6405 33.48C10.8505 33.52 11.0205 33.69 11.0905 33.91C11.5205 35.32 12.0905 36.67 12.7705 37.95C12.8805 38.16 12.8805 38.39 12.7605 38.57L12.2605 39.31C11.6105 40.28 11.7305 41.58 12.5605 42.42L14.3805 44.24L9.10047 49.53C8.92047 49.71 8.82047 49.94 8.82047 50.19V57.08C7.33047 57.49 6.23047 58.85 6.23047 60.47C6.23047 62.42 7.81047 64 9.76047 64C11.7105 64 13.2905 62.42 13.2905 60.47C13.2905 58.85 12.1905 57.5 10.7005 57.08V50.58L15.7105 45.57L17.8005 47.66C18.6305 48.48 19.9405 48.6 20.9005 47.95L21.6405 47.45C21.8205 47.33 22.0505 47.33 22.2605 47.44C23.5305 48.12 24.8905 48.68 26.3005 49.12C26.5205 49.19 26.6905 49.36 26.7305 49.56L26.9005 50.43C27.1205 51.58 28.1305 52.42 29.3105 52.42H32.0705V57.08C30.5805 57.49 29.4805 58.85 29.4805 60.47C29.4805 62.42 31.0605 64 33.0105 64C34.9605 64 36.5405 62.42 36.5405 60.47C36.5405 58.85 35.4405 57.5 33.9505 57.08V52.42H36.7105C37.8805 52.42 38.9005 51.58 39.1205 50.43L39.2805 49.57C39.3205 49.36 39.4905 49.19 39.7105 49.12C41.1205 48.69 42.4705 48.12 43.7505 47.44C43.9605 47.33 44.1905 47.33 44.3705 47.45L45.1105 47.95C46.0805 48.6 47.3805 48.48 48.2205 47.65L50.3005 45.57L55.3105 50.58V57.06C53.8205 57.47 52.7205 58.83 52.7205 60.45C52.7205 62.4 54.3005 63.98 56.2505 63.98C58.2005 63.98 59.7805 62.4 59.7805 60.45C59.7705 58.85 58.6705 57.49 57.1805 57.08ZM11.4105 60.47C11.4105 61.38 10.6705 62.12 9.76047 62.12C8.85047 62.12 8.11047 61.38 8.11047 60.47C8.11047 59.56 8.85047 58.82 9.76047 58.82C10.6705 58.81 11.4105 59.56 11.4105 60.47ZM34.6505 60.47C34.6505 61.38 33.9105 62.12 33.0005 62.12C32.0905 62.12 31.3505 61.38 31.3505 60.47C31.3505 59.56 32.0905 58.82 33.0005 58.82C33.9105 58.81 34.6505 59.56 34.6505 60.47ZM46.8905 46.32C46.6905 46.51 46.3805 46.54 46.1605 46.39L45.4205 45.89C44.6705 45.38 43.6905 45.34 42.8705 45.78C41.7105 46.4 40.4605 46.92 39.1705 47.32C38.2905 47.59 37.6305 48.31 37.4505 49.2L37.2805 50.07C37.2305 50.34 36.9905 50.54 36.7205 50.54H29.3205C29.0505 50.54 28.8105 50.34 28.7605 50.07L28.5905 49.18C28.4105 48.3 27.7505 47.58 26.8705 47.31C25.5805 46.91 24.3305 46.39 23.1705 45.77C22.7905 45.57 22.3805 45.47 21.9705 45.47C21.4905 45.47 21.0205 45.61 20.6105 45.88L19.8705 46.38C19.6405 46.53 19.3305 46.5 19.1405 46.31L13.9105 41.08C13.7205 40.88 13.6905 40.57 13.8405 40.35L14.3405 39.61C14.8505 38.86 14.8905 37.88 14.4505 37.06C13.8305 35.9 13.3105 34.65 12.9105 33.36C12.6405 32.48 11.9205 31.82 11.0305 31.64L10.1605 31.47C9.89047 31.42 9.69047 31.18 9.69047 30.91V23.51C9.69047 23.24 9.89047 23 10.1605 22.95L11.0405 22.78C11.9205 22.6 12.6405 21.94 12.9105 21.06C13.3105 19.77 13.8305 18.52 14.4505 17.36C14.8905 16.54 14.8505 15.56 14.3405 14.81L13.8405 14.07C13.6905 13.84 13.7205 13.53 13.9105 13.34L19.1405 8.11C19.3405 7.92 19.6505 7.89 19.8805 8.04L20.6205 8.54C21.3705 9.05 22.3505 9.09 23.1705 8.65C24.3405 8.03 25.5805 7.51 26.8705 7.11C27.7505 6.84 28.4105 6.12 28.5905 5.23L28.7605 4.36C28.8105 4.09 29.0505 3.89 29.3205 3.89H36.7205C36.9905 3.89 37.2305 4.09 37.2805 4.36L37.4505 5.25C37.6305 6.13 38.2905 6.85 39.1705 7.12C40.4605 7.52 41.7105 8.04 42.8705 8.66C43.6905 9.1 44.6805 9.06 45.4205 8.55L46.1605 8.05C46.3905 7.9 46.7005 7.93 46.8905 8.12L52.1205 13.35C52.3105 13.55 52.3405 13.86 52.1905 14.08L51.6905 14.82C51.1805 15.57 51.1405 16.55 51.5805 17.37C52.2005 18.53 52.7205 19.78 53.1205 21.07C53.3905 21.95 54.1105 22.61 55.0005 22.79L55.8705 22.96C56.1405 23.01 56.3405 23.25 56.3405 23.52V30.92C56.3405 31.19 56.1405 31.43 55.8705 31.48L54.9905 31.65C54.1105 31.83 53.3905 32.49 53.1205 33.37C52.7205 34.66 52.2005 35.91 51.5805 37.07C51.1405 37.89 51.1805 38.87 51.6905 39.62L52.1905 40.36C52.3405 40.59 52.3105 40.9 52.1205 41.09L46.8905 46.32ZM56.2405 62.12C55.3305 62.12 54.5905 61.38 54.5905 60.47C54.5905 59.56 55.3305 58.82 56.2405 58.82C57.1505 58.82 57.8905 59.56 57.8905 60.47C57.8905 61.38 57.1505 62.12 56.2405 62.12Z" fill="#326BE3"/>
<path d="M57.1805 57.08V50.21C57.1805 49.96 57.0805 49.72 56.9005 49.55L51.6105 44.26L53.4405 42.43C54.2605 41.6 54.3805 40.29 53.7305 39.33L53.2305 38.59C53.1105 38.41 53.1105 38.18 53.2205 37.97C53.9005 36.7 54.4605 35.34 54.9005 33.93C54.9705 33.71 55.1405 33.54 55.3405 33.5L56.2105 33.33C57.3605 33.11 58.2005 32.1 58.2005 30.92V23.52C58.2005 22.34 57.3605 21.33 56.2105 21.11L55.3505 20.95C55.1405 20.91 54.9705 20.74 54.9005 20.52C54.4705 19.11 53.9005 17.76 53.2205 16.48C53.1105 16.27 53.1105 16.04 53.2305 15.86L53.7305 15.12C54.3805 14.15 54.2605 12.85 53.4305 12.01L48.1905 6.77C47.3605 5.95 46.0505 5.83 45.0905 6.48L44.3405 6.98C44.1705 7.1 43.9305 7.1 43.7205 6.99C42.4505 6.31 41.0905 5.75 39.6805 5.31C39.4605 5.24 39.2905 5.07 39.2505 4.87L39.0805 4C38.8905 2.84 37.8805 2 36.7005 2H29.3005C28.1205 2 27.1105 2.84 26.8905 3.99L26.7305 4.85C26.6905 5.06 26.5205 5.23 26.3005 5.3C24.8905 5.73 23.5405 6.3 22.2605 6.98C22.0505 7.09 21.8205 7.09 21.6405 6.97L20.9005 6.47C19.9305 5.82 18.6305 5.94 17.7905 6.77L12.5505 12C11.7305 12.83 11.6105 14.14 12.2605 15.1L12.7605 15.84C12.8805 16.01 12.8805 16.25 12.7705 16.46C12.0905 17.73 11.5305 19.09 11.0905 20.5C11.0205 20.72 10.8505 20.89 10.6505 20.93L9.78047 21.1C8.63047 21.32 7.79047 22.33 7.79047 23.51V30.91C7.79047 32.09 8.63047 33.1 9.78047 33.32L10.6405 33.48C10.8505 33.52 11.0205 33.69 11.0905 33.91C11.5205 35.32 12.0905 36.67 12.7705 37.95C12.8805 38.16 12.8805 38.39 12.7605 38.57L12.2605 39.31C11.6105 40.28 11.7305 41.58 12.5605 42.42L14.3805 44.24L9.10047 49.53C8.92047 49.71 8.82047 49.94 8.82047 50.19V57.08C7.33047 57.49 6.23047 58.85 6.23047 60.47C6.23047 62.42 7.81047 64 9.76047 64C11.7105 64 13.2905 62.42 13.2905 60.47C13.2905 58.85 12.1905 57.5 10.7005 57.08V50.58L15.7105 45.57L17.8005 47.66C18.6305 48.48 19.9405 48.6 20.9005 47.95L21.6405 47.45C21.8205 47.33 22.0505 47.33 22.2605 47.44C23.5305 48.12 24.8905 48.68 26.3005 49.12C26.5205 49.19 26.6905 49.36 26.7305 49.56L26.9005 50.43C27.1205 51.58 28.1305 52.42 29.3105 52.42H32.0705V57.08C30.5805 57.49 29.4805 58.85 29.4805 60.47C29.4805 62.42 31.0605 64 33.0105 64C34.9605 64 36.5405 62.42 36.5405 60.47C36.5405 58.85 35.4405 57.5 33.9505 57.08V52.42H36.7105C37.8805 52.42 38.9005 51.58 39.1205 50.43L39.2805 49.57C39.3205 49.36 39.4905 49.19 39.7105 49.12C41.1205 48.69 42.4705 48.12 43.7505 47.44C43.9605 47.33 44.1905 47.33 44.3705 47.45L45.1105 47.95C46.0805 48.6 47.3805 48.48 48.2205 47.65L50.3005 45.57L55.3105 50.58V57.06C53.8205 57.47 52.7205 58.83 52.7205 60.45C52.7205 62.4 54.3005 63.98 56.2505 63.98C58.2005 63.98 59.7805 62.4 59.7805 60.45C59.7705 58.85 58.6705 57.49 57.1805 57.08ZM11.4105 60.47C11.4105 61.38 10.6705 62.12 9.76047 62.12C8.85047 62.12 8.11047 61.38 8.11047 60.47C8.11047 59.56 8.85047 58.82 9.76047 58.82C10.6705 58.81 11.4105 59.56 11.4105 60.47ZM34.6505 60.47C34.6505 61.38 33.9105 62.12 33.0005 62.12C32.0905 62.12 31.3505 61.38 31.3505 60.47C31.3505 59.56 32.0905 58.82 33.0005 58.82C33.9105 58.81 34.6505 59.56 34.6505 60.47ZM46.8905 46.32C46.6905 46.51 46.3805 46.54 46.1605 46.39L45.4205 45.89C44.6705 45.38 43.6905 45.34 42.8705 45.78C41.7105 46.4 40.4605 46.92 39.1705 47.32C38.2905 47.59 37.6305 48.31 37.4505 49.2L37.2805 50.07C37.2305 50.34 36.9905 50.54 36.7205 50.54H29.3205C29.0505 50.54 28.8105 50.34 28.7605 50.07L28.5905 49.18C28.4105 48.3 27.7505 47.58 26.8705 47.31C25.5805 46.91 24.3305 46.39 23.1705 45.77C22.7905 45.57 22.3805 45.47 21.9705 45.47C21.4905 45.47 21.0205 45.61 20.6105 45.88L19.8705 46.38C19.6405 46.53 19.3305 46.5 19.1405 46.31L13.9105 41.08C13.7205 40.88 13.6905 40.57 13.8405 40.35L14.3405 39.61C14.8505 38.86 14.8905 37.88 14.4505 37.06C13.8305 35.9 13.3105 34.65 12.9105 33.36C12.6405 32.48 11.9205 31.82 11.0305 31.64L10.1605 31.47C9.89047 31.42 9.69047 31.18 9.69047 30.91V23.51C9.69047 23.24 9.89047 23 10.1605 22.95L11.0405 22.78C11.9205 22.6 12.6405 21.94 12.9105 21.06C13.3105 19.77 13.8305 18.52 14.4505 17.36C14.8905 16.54 14.8505 15.56 14.3405 14.81L13.8405 14.07C13.6905 13.84 13.7205 13.53 13.9105 13.34L19.1405 8.11C19.3405 7.92 19.6505 7.89 19.8805 8.04L20.6205 8.54C21.3705 9.05 22.3505 9.09 23.1705 8.65C24.3405 8.03 25.5805 7.51 26.8705 7.11C27.7505 6.84 28.4105 6.12 28.5905 5.23L28.7605 4.36C28.8105 4.09 29.0505 3.89 29.3205 3.89H36.7205C36.9905 3.89 37.2305 4.09 37.2805 4.36L37.4505 5.25C37.6305 6.13 38.2905 6.85 39.1705 7.12C40.4605 7.52 41.7105 8.04 42.8705 8.66C43.6905 9.1 44.6805 9.06 45.4205 8.55L46.1605 8.05C46.3905 7.9 46.7005 7.93 46.8905 8.12L52.1205 13.35C52.3105 13.55 52.3405 13.86 52.1905 14.08L51.6905 14.82C51.1805 15.57 51.1405 16.55 51.5805 17.37C52.2005 18.53 52.7205 19.78 53.1205 21.07C53.3905 21.95 54.1105 22.61 55.0005 22.79L55.8705 22.96C56.1405 23.01 56.3405 23.25 56.3405 23.52V30.92C56.3405 31.19 56.1405 31.43 55.8705 31.48L54.9905 31.65C54.1105 31.83 53.3905 32.49 53.1205 33.37C52.7205 34.66 52.2005 35.91 51.5805 37.07C51.1405 37.89 51.1805 38.87 51.6905 39.62L52.1905 40.36C52.3405 40.59 52.3105 40.9 52.1205 41.09L46.8905 46.32ZM56.2405 62.12C55.3305 62.12 54.5905 61.38 54.5905 60.47C54.5905 59.56 55.3305 58.82 56.2405 58.82C57.1505 58.82 57.8905 59.56 57.8905 60.47C57.8905 61.38 57.1505 62.12 56.2405 62.12Z" stroke="#326BE3" stroke-width="0.8" mask="url(#path-5-outside-1_1001_126)"/>
</svg>
