<?xml version="1.0" encoding="UTF-8"?>
<svg id="Layer_1" xmlns="http://www.w3.org/2000/svg" version="1.1" viewBox="0 0 18 17">
  <!-- Generator: Adobe Illustrator 29.8.2, SVG Export Plug-In . SVG Version: 2.1.1 Build 3)  -->
  <defs>
    <style>
      .st0 {
        fill: #b3e4ff;
      }
    </style>
  </defs>
  <path class="st0" d="M.75,15.97c.51-.13,1.01-.27,1.5-.41v2.45H.75v-2.03ZM12,10.12v7.88h1.5v-9.39c-.46.51-.95,1.01-1.5,1.51ZM4.5,18h1.5v-3.88c-.48.23-.98.44-1.5.65v3.24ZM8.25,18h1.5v-6.07c-.47.34-.98.66-1.5.98v5.09ZM16.6,4.78l1.4-.55-1.3-3.33c-.14-.35-.4-.63-.75-.78-.35-.15-.73-.16-1.08-.02l-3.33,1.3.55,1.4,2.38-.93c-1.17,2.69-5.2,8.9-14.46,11.2v1.55C9.95,12.29,14.31,5.82,15.75,2.59l.85,2.19ZM15.74,18h1.5V6h-1.5v12ZM0,4.51C0,2.02,2.02,0,4.5,0s4.5,2.02,4.5,4.5-2.02,4.5-4.5,4.5S0,6.99,0,4.51ZM3.37,3.38c0,.62.5,1.12,1.12,1.12s1.12-.5,1.12-1.12-.5-1.12-1.12-1.12-1.12.5-1.12,1.12ZM2.25,6.47c.55.63,1.35,1.04,2.25,1.04s1.7-.41,2.25-1.04v-.09c0-.62-.5-1.12-1.12-1.12h-2.25c-.62,0-1.12.5-1.12,1.12v.09Z"/>
</svg>