<svg width="47" height="47" viewBox="0 0 47 47" fill="none" xmlns="http://www.w3.org/2000/svg">
<path d="M41.2559 1.64844C44.2592 1.64868 46.6982 4.08838 46.6982 7.0918V30.3818C46.7091 33.3861 44.2691 35.8262 41.2656 35.8262H5.78613C2.78256 35.8262 0.342773 33.3864 0.342773 30.3828V7.0918C0.342773 4.08823 2.78256 1.64844 5.78613 1.64844H41.2559ZM5.78613 3.09277C3.57792 3.09277 1.78711 4.88359 1.78711 7.0918V30.3828C1.78711 32.591 3.57792 34.3818 5.78613 34.3818H41.2559C43.4639 34.3816 45.2539 32.5909 45.2539 30.3828V7.0918C45.2539 4.88374 43.4639 3.09301 41.2559 3.09277H5.78613Z" fill="#326BE3" stroke="#326BE3" stroke-width="0.4"/>
<path d="M41.2559 4.90723C42.4628 4.9074 43.4404 5.88481 43.4404 7.0918V30.3809L43.4307 30.6045C43.3284 31.7082 42.3971 32.5674 41.2656 32.5674H5.78613C4.57904 32.5673 3.60156 31.5899 3.60156 30.3828V7.0918C3.6016 5.88473 4.57906 4.90726 5.78613 4.90723H41.2559ZM5.78613 6.35156C5.38487 6.3516 5.04594 6.69053 5.0459 7.0918V30.3828C5.0459 30.7841 5.38484 31.123 5.78613 31.123H41.2559C41.657 31.1229 41.9951 30.784 41.9951 30.3828V7.0918C41.9951 6.69061 41.657 6.35174 41.2559 6.35156H5.78613Z" fill="#326BE3" stroke="#326BE3" stroke-width="0.4"/>
<path d="M19.3184 34.3818C19.6692 34.357 19.9788 34.584 20.0703 34.9043L20.0957 35.0469V35.0479C20.1071 35.2069 20.3482 38.6124 18.9873 42.3682L18.9863 42.3711C18.875 42.6632 18.6054 42.8555 18.3086 42.8555C18.2198 42.8555 18.1461 42.8393 18.0684 42.8135L18.0654 42.8125C17.683 42.6799 17.5012 42.2586 17.6289 41.8896L17.6299 41.8877C18.879 38.4295 18.6516 35.1884 18.6514 35.1455H18.6523C18.6317 34.7503 18.9289 34.4106 19.3174 34.3818H19.3184ZM27.7334 34.3926C28.1357 34.4213 28.4203 34.7639 28.3994 35.1562L28.3838 35.7402C28.3789 36.7404 28.4676 38.9007 29.2041 41.252L29.4219 41.8975L29.4229 41.9004C29.5505 42.2694 29.3679 42.6908 28.9854 42.8232L28.9727 42.8271L28.959 42.8301C28.9034 42.8412 28.8256 42.8554 28.7432 42.8555C28.455 42.8555 28.1678 42.6707 28.0645 42.3779L28.0635 42.3789C26.702 38.6217 26.9447 35.2039 26.9561 35.0566C26.9859 34.6504 27.3357 34.3642 27.7334 34.3926Z" fill="#326BE3" stroke="#326BE3" stroke-width="0.4"/>
<path d="M30.623 41.4106C31.0259 41.4106 31.3457 41.7304 31.3457 42.1333V44.7856C31.3457 45.1885 31.0259 45.5083 30.623 45.5083H16.4189C16.016 45.5083 15.6963 45.1885 15.6963 44.7856V42.1333C15.6963 41.7304 16.016 41.4106 16.4189 41.4106H30.623ZM17.1514 44.064H29.9111V42.855H17.1514V44.064Z" fill="#326BE3" stroke="#326BE3" stroke-width="0.4"/>
<path d="M14.6846 7.60156C15.0874 7.60169 15.4062 7.9214 15.4062 8.32422V14.1289L20.4551 17.0068L20.4561 17.0078C20.8007 17.2088 20.9144 17.6395 20.7295 17.9834L20.7305 17.9844C20.5988 18.233 20.3501 18.3622 20.0947 18.3623C19.9816 18.3623 19.8527 18.3339 19.7344 18.2617V18.2637L14.3242 15.1826V15.1816C14.0932 15.0512 13.962 14.8173 13.9619 14.5596V8.32422C13.9619 7.92132 14.2817 7.60156 14.6846 7.60156Z" fill="#326BE3" stroke="#326BE3" stroke-width="0.4"/>
<path d="M14.0615 14.1973C14.263 13.8518 14.6992 13.7352 15.0459 13.9375C15.3907 14.1388 15.5067 14.5725 15.3057 14.9189L15.3066 14.9199L12.3506 20.0381L12.3496 20.0371C12.2252 20.2754 11.9763 20.3993 11.7285 20.3994C11.6149 20.3994 11.4849 20.3706 11.3662 20.2979V20.2988L11.3643 20.2969C11.3634 20.2963 11.3622 20.2964 11.3613 20.2959V20.2949C11.0201 20.0921 10.9054 19.6603 11.1064 19.3154L14.0615 14.1982V14.1973Z" fill="#326BE3" stroke="#326BE3" stroke-width="0.4"/>
<path d="M15.29 7.61182C19.1187 7.61182 22.2373 10.7304 22.2373 14.5591C22.2373 18.3878 19.1187 21.5063 15.29 21.5063C11.4614 21.5063 8.34277 18.3877 8.34277 14.5591C8.3428 10.7304 11.4614 7.61184 15.29 7.61182ZM15.29 9.04639C12.2568 9.04641 9.78729 11.5152 9.78711 14.5483C9.78711 17.5816 12.2567 20.0512 15.29 20.0513C18.3234 20.0513 20.793 17.5817 20.793 14.5483C20.7928 11.5152 18.3232 9.04639 15.29 9.04639Z" fill="#326BE3" stroke="#326BE3" stroke-width="0.4"/>
<path d="M31.7607 9.16846C35.5894 9.16846 38.708 12.2871 38.708 16.1157C38.708 17.3311 38.3856 18.5361 37.7725 19.5903L37.7715 19.5894C37.6525 19.8069 37.4203 19.9507 37.1602 19.9507H26.3711C26.1069 19.9506 25.8778 19.8036 25.751 19.5923L25.749 19.5903C25.1358 18.5361 24.8135 17.3311 24.8135 16.1157C24.8135 12.2871 27.9321 9.16848 31.7607 9.16846ZM31.7715 10.6128C28.7382 10.6128 26.2686 13.0824 26.2686 16.1157V16.1177C26.259 16.9418 26.4523 17.7582 26.8115 18.5063H36.7207C37.08 17.7582 37.2734 16.9413 37.2734 16.1157C37.2734 13.0825 34.8047 10.6129 31.7715 10.6128Z" fill="#326BE3" stroke="#326BE3" stroke-width="0.4"/>
<path d="M31.7715 9.15771C32.1743 9.15784 32.4932 9.47755 32.4932 9.88037V11.9165C32.4932 12.3219 32.1612 12.639 31.7715 12.6392C31.3686 12.6392 31.0488 12.3194 31.0488 11.9165V9.88037C31.0488 9.47747 31.3686 9.15771 31.7715 9.15771Z" fill="#326BE3" stroke="#326BE3" stroke-width="0.4"/>
<path d="M26.8574 11.1909C27.1444 10.9039 27.5948 10.9039 27.8818 11.1909L29.3232 12.6323C29.6098 12.9193 29.6101 13.3699 29.3232 13.6567L29.3164 13.6626L29.1816 13.5151L29.3154 13.6626C29.1695 13.7952 28.9982 13.8715 28.8057 13.8716C28.6238 13.8716 28.4348 13.8028 28.2988 13.6567L26.8574 12.2153C26.5704 11.9283 26.5704 11.4779 26.8574 11.1909Z" fill="#326BE3" stroke="#326BE3" stroke-width="0.4"/>
<path d="M27.5723 15.3931C27.9752 15.3931 28.2949 15.7128 28.2949 16.1157C28.2948 16.5185 27.9751 16.8374 27.5723 16.8374H25.5361C25.1333 16.8374 24.8136 16.5185 24.8135 16.1157C24.8135 15.7128 25.1332 15.3931 25.5361 15.3931H27.5723Z" fill="#326BE3" stroke="#326BE3" stroke-width="0.4"/>
<path d="M37.9961 15.3931C38.399 15.3931 38.7188 15.7128 38.7188 16.1157C38.7186 16.5211 38.3859 16.8374 37.9961 16.8374H35.96C35.5571 16.8374 35.2374 16.5185 35.2373 16.1157C35.2373 15.7128 35.5571 15.3931 35.96 15.3931H37.9961Z" fill="#326BE3" stroke="#326BE3" stroke-width="0.4"/>
<path d="M35.6621 11.1909C35.9491 10.904 36.3995 10.9039 36.6865 11.1909C36.9731 11.4779 36.9733 11.9285 36.6865 12.2153L35.2451 13.6567C35.1022 13.7997 34.9148 13.8715 34.7275 13.8716C34.5423 13.8716 34.3494 13.8006 34.2129 13.6489V13.6479C33.9338 13.3607 33.9364 12.9167 34.2207 12.6323L35.6621 11.1909Z" fill="#326BE3" stroke="#326BE3" stroke-width="0.4"/>
<path d="M31.7715 14.5889C32.1743 14.589 32.4932 14.9087 32.4932 15.3115V19.2275C32.4932 19.6199 32.1638 19.9501 31.7715 19.9502C31.3686 19.9502 31.0488 19.6304 31.0488 19.2275V15.3115C31.0488 14.9086 31.3686 14.5889 31.7715 14.5889Z" fill="#326BE3" stroke="#326BE3" stroke-width="0.4"/>
<path d="M37.3174 22.8506C37.7202 22.8507 38.0391 23.1704 38.0391 23.5732C38.0389 23.9786 37.7071 24.2948 37.3174 24.2949H9.74414C9.34132 24.2949 9.02161 23.976 9.02148 23.5732C9.02148 23.1703 9.34124 22.8506 9.74414 22.8506H37.3174Z" fill="#326BE3" stroke="#326BE3" stroke-width="0.4"/>
<path d="M37.3174 25.6392C37.7202 25.6392 38.0391 25.959 38.0391 26.3618C38.0389 26.7671 37.7071 27.0834 37.3174 27.0835H9.74414C9.34132 27.0835 9.02161 26.7646 9.02148 26.3618C9.02148 25.9589 9.34124 25.6392 9.74414 25.6392H37.3174Z" fill="#326BE3" stroke="#326BE3" stroke-width="0.4"/>
<path d="M37.3174 28.4277C37.7202 28.4278 38.0391 28.7475 38.0391 29.1504C38.0389 29.5557 37.7071 29.872 37.3174 29.8721H9.74414C9.34132 29.8721 9.02161 29.5532 9.02148 29.1504C9.02148 28.7475 9.34124 28.4277 9.74414 28.4277H37.3174Z" fill="#326BE3" stroke="#326BE3" stroke-width="0.4"/>
</svg>
