<svg width="47" height="47" viewBox="0 0 47 47" fill="none" xmlns="http://www.w3.org/2000/svg">
<g clip-path="url(#clip0_1000_122)">
<path d="M24.2954 7.36431C30.8659 7.36431 35.7636 8.56841 38.0987 9.28623C38.1753 9.3099 38.2265 9.37875 38.2265 9.45837V18.53C38.2265 22.123 37.6253 25.3789 36.4397 28.2076C35.4714 30.5173 34.1004 32.5756 32.3644 34.3249C29.2302 37.4832 25.716 38.8362 24.3505 39.2713C24.3329 39.2769 24.3143 39.2799 24.2958 39.2799C24.2773 39.2799 24.2588 39.2769 24.2412 39.2713C22.8757 38.8362 19.3611 37.4832 16.2273 34.3249C14.4913 32.5756 13.1198 30.5173 12.152 28.2076C10.9664 25.3789 10.3652 22.123 10.3652 18.53V9.45837C10.3652 9.37875 10.4164 9.3099 10.493 9.28623C12.828 8.56841 17.7258 7.36431 24.2963 7.36431M24.2954 5C17.4646 5 12.3443 6.24326 9.79755 7.02606C8.72943 7.35441 8 8.34076 8 9.45837V18.53C8 35.4632 20.2885 40.4935 23.5229 41.5246C23.7743 41.6046 24.0351 41.6447 24.2954 41.6447C24.5558 41.6447 24.8166 41.6046 25.0679 41.5246C28.3023 40.4939 40.5908 35.4632 40.5908 18.53V9.45837C40.5908 8.34076 39.8614 7.35441 38.7933 7.02606C36.2465 6.24326 31.1263 5 24.2954 5Z" fill="#326BE3"/>
<path d="M23.846 28.776C23.0536 29.6384 21.6929 29.6384 20.9005 28.7759L15.9347 23.3711C15.3311 22.7142 15.3743 21.6924 16.0313 21.0888C16.6882 20.4852 17.71 20.5285 18.3136 21.1854L20.9006 24.0009C21.693 24.8634 23.0536 24.8634 23.846 24.001L30.2767 17.0024C30.8803 16.3455 31.9021 16.3023 32.559 16.9058C33.216 17.5094 33.2592 18.5313 32.6556 19.1882L23.846 28.776Z" fill="#326BE3"/>
</g>
<defs>
<clipPath id="clip0_1000_122">
<rect width="32.5908" height="36.6447" fill="white" transform="translate(8 5)"/>
</clipPath>
</defs>
</svg>
